<svg width="55" height="11" viewBox="0 0 55 11" fill="none" xmlns="http://www.w3.org/2000/svg">
<path d="M8.40661 0.046875V10H6.69079L2.22693 2.87012V10H0.511106V0.046875H2.22693L6.70447 7.19043V0.046875H8.40661ZM9.97204 6.38379V6.22656C9.97204 5.69336 10.0495 5.19889 10.2045 4.74316C10.3594 4.28288 10.5827 3.88411 10.8744 3.54688C11.1706 3.20508 11.5306 2.94076 11.9545 2.75391C12.3829 2.5625 12.8659 2.4668 13.4037 2.4668C13.946 2.4668 14.4291 2.5625 14.8529 2.75391C15.2813 2.94076 15.6436 3.20508 15.9398 3.54688C16.236 3.88411 16.4616 4.28288 16.6166 4.74316C16.7715 5.19889 16.849 5.69336 16.849 6.22656V6.38379C16.849 6.91699 16.7715 7.41146 16.6166 7.86719C16.4616 8.32292 16.236 8.72168 15.9398 9.06348C15.6436 9.40072 15.2836 9.66504 14.8597 9.85645C14.4359 10.0433 13.9551 10.1367 13.4174 10.1367C12.875 10.1367 12.3897 10.0433 11.9613 9.85645C11.5375 9.66504 11.1774 9.40072 10.8812 9.06348C10.585 8.72168 10.3594 8.32292 10.2045 7.86719C10.0495 7.41146 9.97204 6.91699 9.97204 6.38379ZM11.6195 6.22656V6.38379C11.6195 6.71647 11.6537 7.03092 11.722 7.32715C11.7904 7.62337 11.8975 7.88314 12.0433 8.10645C12.1892 8.32975 12.376 8.50521 12.6039 8.63281C12.8317 8.76042 13.1029 8.82422 13.4174 8.82422C13.7227 8.82422 13.987 8.76042 14.2103 8.63281C14.4382 8.50521 14.625 8.32975 14.7709 8.10645C14.9167 7.88314 15.0238 7.62337 15.0922 7.32715C15.1651 7.03092 15.2015 6.71647 15.2015 6.38379V6.22656C15.2015 5.89844 15.1651 5.58854 15.0922 5.29688C15.0238 5.00065 14.9144 4.73861 14.764 4.51074C14.6182 4.28288 14.4314 4.10514 14.2035 3.97754C13.9802 3.84538 13.7136 3.7793 13.4037 3.7793C13.0938 3.7793 12.8249 3.84538 12.597 3.97754C12.3737 4.10514 12.1892 4.28288 12.0433 4.51074C11.8975 4.73861 11.7904 5.00065 11.722 5.29688C11.6537 5.58854 11.6195 5.89844 11.6195 6.22656ZM22.6801 8.25684V2.60352H24.3343V10H22.7758L22.6801 8.25684ZM22.9125 6.71875L23.4662 6.70508C23.4662 7.20182 23.4115 7.65983 23.3021 8.0791C23.1927 8.49382 23.0241 8.85612 22.7963 9.16602C22.5684 9.47135 22.2767 9.71061 21.9213 9.88379C21.5658 10.0524 21.1397 10.1367 20.6429 10.1367C20.2829 10.1367 19.9525 10.0843 19.6517 9.97949C19.351 9.87467 19.0912 9.71289 18.8724 9.49414C18.6582 9.27539 18.4919 8.99056 18.3734 8.63965C18.2549 8.28874 18.1957 7.86947 18.1957 7.38184V2.60352H19.8431V7.39551C19.8431 7.66439 19.875 7.88997 19.9388 8.07227C20.0026 8.25 20.0892 8.39355 20.1986 8.50293C20.308 8.6123 20.4356 8.68978 20.5814 8.73535C20.7273 8.78092 20.8822 8.80371 21.0463 8.80371C21.5157 8.80371 21.8848 8.71257 22.1537 8.53027C22.4271 8.34342 22.6208 8.09277 22.7347 7.77832C22.8532 7.46387 22.9125 7.11068 22.9125 6.71875ZM28.4291 8.69434L30.2406 2.60352H31.9496L29.3793 10H28.3129L28.4291 8.69434ZM27.0414 2.60352L28.8871 8.72168L28.976 10H27.9095L25.3256 2.60352H27.0414ZM36.1332 10.1367C35.5863 10.1367 35.0918 10.0479 34.6498 9.87012C34.2123 9.68783 33.8386 9.4349 33.5287 9.11133C33.2233 8.78776 32.9886 8.40723 32.8246 7.96973C32.6605 7.53223 32.5785 7.06055 32.5785 6.55469V6.28125C32.5785 5.70247 32.6628 5.17839 32.8314 4.70898C33 4.23958 33.2347 3.83854 33.5355 3.50586C33.8363 3.16862 34.1918 2.91113 34.6019 2.7334C35.0121 2.55566 35.4564 2.4668 35.9349 2.4668C36.4636 2.4668 36.9261 2.55566 37.3226 2.7334C37.7191 2.91113 38.0472 3.16178 38.307 3.48535C38.5713 3.80436 38.7673 4.1849 38.8949 4.62695C39.0271 5.06901 39.0931 5.55664 39.0931 6.08984V6.79395H33.3783V5.61133H37.4662V5.48145C37.4571 5.18522 37.3978 4.90723 37.2885 4.64746C37.1836 4.3877 37.0219 4.17806 36.8031 4.01855C36.5844 3.85905 36.2927 3.7793 35.9281 3.7793C35.6547 3.7793 35.4108 3.83854 35.1967 3.95703C34.987 4.07096 34.8116 4.2373 34.6703 4.45605C34.529 4.6748 34.4196 4.93913 34.3422 5.24902C34.2692 5.55436 34.2328 5.89844 34.2328 6.28125V6.55469C34.2328 6.87826 34.2761 7.17904 34.3627 7.45703C34.4538 7.73047 34.586 7.96973 34.7592 8.1748C34.9323 8.37988 35.142 8.54167 35.3881 8.66016C35.6342 8.77409 35.9144 8.83105 36.2289 8.83105C36.6254 8.83105 36.9786 8.7513 37.2885 8.5918C37.5983 8.43229 37.8672 8.20671 38.0951 7.91504L38.9633 8.75586C38.8038 8.98828 38.5964 9.21159 38.3412 9.42578C38.086 9.63542 37.7738 9.80632 37.4047 9.93848C37.0401 10.0706 36.6163 10.1367 36.1332 10.1367ZM44.5482 8.5166V4.98926C44.5482 4.72493 44.5004 4.49707 44.4047 4.30566C44.309 4.11426 44.1631 3.96615 43.9672 3.86133C43.7758 3.75651 43.5342 3.7041 43.2426 3.7041C42.9737 3.7041 42.7413 3.74967 42.5453 3.84082C42.3493 3.93197 42.1967 4.05501 42.0873 4.20996C41.9779 4.36491 41.9232 4.54036 41.9232 4.73633H40.2826C40.2826 4.44466 40.3532 4.16211 40.4945 3.88867C40.6358 3.61523 40.8409 3.37142 41.1097 3.15723C41.3786 2.94303 41.6999 2.77441 42.0736 2.65137C42.4473 2.52832 42.8666 2.4668 43.3314 2.4668C43.8874 2.4668 44.3796 2.56022 44.808 2.74707C45.2409 2.93392 45.5804 3.21647 45.8265 3.59473C46.0772 3.96842 46.2025 4.43783 46.2025 5.00293V8.29102C46.2025 8.62826 46.2253 8.93132 46.2709 9.2002C46.321 9.46452 46.3916 9.69466 46.4828 9.89062V10H44.7943C44.7168 9.82227 44.6553 9.59668 44.6097 9.32324C44.5687 9.04525 44.5482 8.77637 44.5482 8.5166ZM44.7875 5.50195L44.8011 6.52051H43.6185C43.3132 6.52051 43.0443 6.55013 42.8119 6.60938C42.5795 6.66406 42.3858 6.74609 42.2308 6.85547C42.0759 6.96484 41.9597 7.09701 41.8822 7.25195C41.8047 7.4069 41.766 7.58236 41.766 7.77832C41.766 7.97428 41.8116 8.1543 41.9027 8.31836C41.9939 8.47786 42.126 8.60319 42.2992 8.69434C42.4769 8.78548 42.6911 8.83105 42.9418 8.83105C43.279 8.83105 43.573 8.7627 43.8236 8.62598C44.0788 8.4847 44.2793 8.3138 44.4252 8.11328C44.571 7.9082 44.6485 7.71452 44.6576 7.53223L45.1908 8.26367C45.1361 8.45052 45.0427 8.65104 44.9105 8.86523C44.7784 9.07943 44.6052 9.28451 44.391 9.48047C44.1814 9.67188 43.9284 9.8291 43.6322 9.95215C43.3405 10.0752 43.0033 10.1367 42.6205 10.1367C42.1374 10.1367 41.7067 10.041 41.3285 9.84961C40.9502 9.65365 40.654 9.3916 40.4398 9.06348C40.2256 8.73079 40.1185 8.35482 40.1185 7.93555C40.1185 7.54362 40.1914 7.19727 40.3373 6.89648C40.4877 6.59115 40.7064 6.33594 40.9935 6.13086C41.2852 5.92578 41.6407 5.77083 42.0599 5.66602C42.4792 5.55664 42.9577 5.50195 43.4955 5.50195H44.7875ZM52.3754 8.25684V2.60352H54.0297V10H52.4711L52.3754 8.25684ZM52.6078 6.71875L53.1615 6.70508C53.1615 7.20182 53.1068 7.65983 52.9974 8.0791C52.8881 8.49382 52.7194 8.85612 52.4916 9.16602C52.2637 9.47135 51.972 9.71061 51.6166 9.88379C51.2611 10.0524 50.835 10.1367 50.3383 10.1367C49.9782 10.1367 49.6478 10.0843 49.347 9.97949C49.0463 9.87467 48.7865 9.71289 48.5677 9.49414C48.3536 9.27539 48.1872 8.99056 48.0687 8.63965C47.9502 8.28874 47.891 7.86947 47.891 7.38184V2.60352H49.5385V7.39551C49.5385 7.66439 49.5704 7.88997 49.6342 8.07227C49.698 8.25 49.7845 8.39355 49.8939 8.50293C50.0033 8.6123 50.1309 8.68978 50.2767 8.73535C50.4226 8.78092 50.5775 8.80371 50.7416 8.80371C51.211 8.80371 51.5801 8.71257 51.849 8.53027C52.1224 8.34342 52.3161 8.09277 52.4301 7.77832C52.5485 7.46387 52.6078 7.11068 52.6078 6.71875Z" fill="#008766"/>
</svg>
